# AST/ASF file generated using VICON BodyLanguage
# -----------------------------------------------
:version 1.10
:name VICON
:units
  mass 1.0
  length 0.45
  angle deg
:documentation
   .ast/.asf automatically generated from VICON data using
   VICON BodyBuilder and BodyLanguage model FoxedUp or BRILLIANT.MOD
:root
   order TX TY TZ RX RY RZ
   axis XYZ
   position 0 0 0  
   orientation 0 0 0 
:bonedata
  begin
     id 1 
     name lhipjoint
     direction 0.535335 -0.74333 0.401095 
     length 2.04549 
     axis 0 0 0  XYZ
  end
  begin
     id 2 
     name lfemur
     direction 0.34202 -0.939693 0  
     length 6.95643  
     axis 0 0 20  XYZ
    dof rx ry rz
    limits (-160.0 20.0)
           (-70.0 70.0)
           (-60.0 70.0)
  end
  begin
     id 3 
     name ltibia
     direction 0.34192 -0.939729 0   
     length 5.55969   
     axis 0 0 20   XYZ
    dof rx
    limits (-10.0 170.0)
  end
  begin
     id 4 
     name lfoot
     direction 0.216943 -0.596046 0.773088   
     length 2.27918   
     axis -90 7.62852e-016 20   XYZ
    dof rx rz
    limits (-45.0 90.0)
           (-70.0 20.0)
  end
  begin
     id 5 
     name ltoes
     direction 1.53519e-011 -4.21748e-011 1   
     length 1.05562   
     axis -90 7.62852e-016 20   XYZ
    dof rx
    limits (-90.0 20.0)
  end
  begin
     id 6 
     name rhipjoint
     direction -0.576368 -0.719173 0.38806   
     length 2.1142  
     axis 0 0 0  XYZ 
  end
  begin
     id 7 
     name rfemur
     direction -0.34202 -0.939693 0   
     length 7.07928   
     axis 0 0 -20   XYZ
    dof rx ry rz
    limits (-160.0 20.0)
           (-70.0 70.0)
           (-70.0 60.0)
  end
  begin
     id 8 
     name rtibia
     direction -0.34202 -0.939693 0   
     length 5.79974   
     axis 0 0 -20   XYZ
    dof rx
    limits (-10.0 170.0)
 end
 begin
     id 9 
     name rfoot
     direction -0.189288 -0.520065 0.832888   
     length 2.42173  
     axis -90 -7.62852e-016 -20   XYZ
    dof rx rz
    limits (-45.0 90.0)
           (-20.0 70.0)
  end
  begin
     id 10 
     name rtoes
     direction -1.53574e-011 -4.21658e-011 1   
     length 1.14469   
     axis -90 -7.62852e-016 -20   XYZ
    dof rx
    limits (-90.0 20.0)
  end
  begin
     id 11 
     name lowerback
     direction -0.00135702 0.993803 0.111144   
     length 1.91308   
     axis 0 0 0   XYZ
    dof rx ry rz
    limits (-20.0 45.0)
           (-30.0 30.0)
           (-30.0 30.0)
  end
  begin
     id 12 
     name upperback
     direction -0.0056745 0.999813 0.0184631   
     length 1.9212   
     axis 0 0 0   XYZ
    dof rx ry rz
    limits (-20.0 45.0)
           (-30.0 30.0)
           (-30.0 30.0)
  end
  begin
     id 13 
     name thorax
     direction -0.00733434 0.999426 -0.0330788   
     length 1.94196   
     axis 0 0 0   XYZ
    dof rx ry rz
    limits (-20.0 45.0)
           (-30.0 30.0)
           (-30.0 30.0)
  end
  begin
     id 14 
     name lowerneck
     direction 0.0563074 0.996944 -0.0541571   
     length 2.34257   
     axis 0 0 0   XYZ
    dof rx ry rz
    limits (-20.0 45.0)
           (-30.0 30.0)
           (-30.0 30.0)
  end
  begin
     id 15 
     name upperneck
     direction -0.0544519 0.976166 -0.210085   
     length 2.32506   
     axis 0 0 0   XYZ
    dof rx ry rz
    limits (-20.0 45.0)
           (-30.0 30.0)
           (-30.0 30.0)
  end
  begin
     id 16
     name head
     direction -0.0226035 0.997615 -0.0652205  
     length 2.3648  
     axis 0 0 0   XYZ
    dof rx ry rz
    limits (-20.0 45.0)
           (-30.0 30.0)
           (-30.0 30.0)
  end
  begin
     id 17 
     name lclavicle
     direction 0.92109 0.381297 -0.0787716  
     length 4.0487  
     axis 0 0 0   XYZ
    dof ry rz
    limits (-20.0 10.0)
           (0.0 20.0)
  end
  begin
     id 18 
     name lhumerus
     direction 1 -4.48986e-011 3.56724e-027   
     length 4.94991   
     axis 180 -30 -90   XYZ
    dof rx ry rz
    limits (-60.0 90.0)
           (-90.0 90.0)
           (-90.0 90.0)
  end
  begin
     id 19
     name lradius
     direction 1 -4.48981e-011 8.62147e-027   
     length 2.7606   
     axis 180 -30 -90   XYZ
    dof rx
    limits (-10.0 170.0)
  end
  begin
     id 20
     name lwrist
     direction 1 -4.48989e-011 1.59799e-026   
     length 1.3803   
     axis -1.17785e-014 90 90   XYZ
    dof ry
    limits (-180.0 0.0)
 end
  begin
     id 21 
     name lhand
     direction 1 -4.48896e-011 3.19599e-026   
     length 0.843936   
     axis -2.03931e-014 90 90   XYZ
    dof rx rz
    limits (-90.0 90.0)
           (-45.0 45.0)
  end
  begin
     id 22 
     name lfingers
     direction 1 -4.48887e-011 6.39197e-026   
     length 0.680403   
     axis -4.07862e-014 90 90   XYZ
    dof rx
    limits (0.0 90.0)
  end
  begin
     id 23
     name lthumb
     direction 0.707107 -6.348e-011 0.707107   
     length 0.976926   
     axis -90 45 2.85299e-015   XYZ
    dof rx rz
    limits (-45.0 45.0)
           (-45.0 45.0)
  end
  begin
     id 24 
     name rclavicle
     direction -0.951104 0.307692 -0.026953   
     length 4.21801  
     axis 0 0 0   XYZ 
    dof ry rz
    limits (-10.0 20.0)
           (-20.0 0.0)
  end
  begin
     id 25 
     name rhumerus
     direction -1 -4.4896e-011 -1.8171e-018  
     length 4.32982   
     axis 180 30 90   XYZ
    dof rx ry rz
    limits (-90.0 60.0)
           (-90.0 90.0)
           (-90.0 90.0)
  end
  begin
     id 26 
     name rradius
     direction -1 -4.48959e-011 8.25165e-027   
     length 3.20057   
     axis 180 30 90   XYZ
    dof rx
    limits (-10.0 170.0)
  end
  begin
     id 27 
     name rwrist
     direction -1 -4.48997e-011 1.59799e-026   
     length 1.60029   
     axis -1.17785e-014 -90 -90   XYZ
    dof ry
    limits (-180.0 0.0)
  end
  begin
     id 28
     name rhand
     direction -1 -4.49023e-011 3.19599e-026   
     length 0.960433   
     axis -2.03931e-014 -90 -90   XYZ
    dof rx rz
    limits (-90.0 90.0)
           (-45.0 45.0)
  end
  begin
     id 29
     name rfingers
     direction -1 -4.48802e-011 6.39197e-026   
     length 0.774326   
     axis -4.07862e-014 -90 -90   XYZ
    dof rx
    limits (0.0 90.0)
  end
  begin
     id 30
     name rthumb
     direction -0.707107 -6.34876e-011 0.707107   
     length 1.11178   
     axis -90 -45 -2.85299e-015   XYZ
    dof rx rz
    limits (-45.0 45.0)
           (-45.0 45.0)
  end
:hierarchy
  begin
    root lhipjoint rhipjoint lowerback
    lhipjoint lfemur
    lfemur ltibia
    ltibia lfoot
    lfoot ltoes
    rhipjoint rfemur
    rfemur rtibia
    rtibia rfoot
    rfoot rtoes
    lowerback upperback
    upperback thorax
    thorax lowerneck lclavicle rclavicle
    lowerneck upperneck
    upperneck head
    lclavicle lhumerus
    lhumerus lradius
    lradius lwrist
    lwrist lhand lthumb
    lhand lfingers
    rclavicle rhumerus
    rhumerus rradius
    rradius rwrist
    rwrist rhand rthumb
    rhand rfingers
end

#!OML:ASF C:\KaitlinTest1\Natural Motions\Nikki\Session 2\Nikki.ASF
:FULLY-SPECIFIED
:DEGREES
987
root -15.1396 16.4851 5.27172 -157.703 82.7258 -173.078
lowerback -1.94247 0.753191 -1.60376
upperback -0.806987 1.07264 -2.24365
thorax 0.276004 0.549121 -1.37616
lowerneck 3.88029 -42.8853 -21.1687
upperneck 8.99335 -57.5987 -13.0732
head 13.813 -36.2149 -164.38
rclavicle 1.70955e-014 2.54444e-014
rhumerus -33.4581 -30.0199 -70.8757
rradius 13.7882
rwrist 30.6084
rhand -31.1088 0.552321
rfingers 7.12502
rthumb -4.38824 -29.3822
lclavicle 1.70955e-014 2.54444e-014
lhumerus -39.791 5.5467 74.5532
lradius 43.112
lwrist -17.8174
lhand -40.4029 3.54176
lfingers 7.12502
lthumb -13.3562 33.0937
rfemur -40.0527 -6.61225 19.4724
rtibia 37.9834
rfoot -13.6549 -5.75629
rtoes -5.60573e-014
lfemur -10.0502 13.8297 -18.5486
ltibia 10.3533
lfoot -6.13893 -1.98881
ltoes 1.74931e-014
988
root -15.2059 16.4878 5.26134 -156.86 82.8681 -172.068
lowerback -1.95082 0.656192 -1.54886
upperback -0.803321 0.940149 -2.14089
thorax 0.281949 0.481983 -1.30418
lowerneck 3.84601 -42.7561 -21.1146
upperneck 9.15469 -57.6599 -13.2305
head 13.8696 -36.3762 -164.254
rclavicle -1.19271e-015 1.19271e-014
rhumerus -33.137 -28.5158 -71.9383
rradius 14.1019
rwrist 30.4745
rhand -30.9065 0.447498
rfingers 7.12502
rthumb -4.19288 -29.491
lclavicle -1.19271e-015 1.19271e-014
lhumerus -40.1362 6.06454 74.3337
lradius 42.878
lwrist -17.5994
lhand -40.5378 3.59661
lfingers 7.12502
lthumb -13.4862 33.14
rfemur -39.6403 -6.23615 19.4206
rtibia 39.2956
rfoot -13.6646 -5.54068
rtoes -2.40405e-013
lfemur -10.5081 13.6952 -18.5188
ltibia 11.2309
lfoot -6.28796 -1.72179
ltoes -6.04305e-014
989
root -15.2725 16.4885 5.24916 -156.124 83.0554 -171.201
lowerback -2.02223 0.765077 -1.37951
upperback -0.674687 1.08085 -1.92896
thorax 0.454312 0.549413 -1.1764
lowerneck 3.77409 -42.8219 -21.3418
upperneck 8.8628 -57.4891 -12.9785
head 13.8641 -35.8172 -164.365
rclavicle -1.03368e-014 -9.54166e-015
rhumerus -32.5334 -26.6923 -72.8406
rradius 14.3917
rwrist 28.7653
rhand -31.1787 0.706802
rfingers 7.12502
rthumb -4.45569 -29.2263
lclavicle -1.03368e-014 -9.54166e-015
lhumerus -39.981 6.2732 74.7808
lradius 42.3384
lwrist -17.2539
lhand -40.7748 3.49264
lfingers 7.12502
lthumb -13.7146 33.0207
rfemur -39.2839 -5.83715 19.3015
rtibia 40.557
rfoot -13.691 -5.16029
rtoes -3.97569e-015
lfemur -11.0287 13.9094 -18.5948
ltibia 12.1358
lfoot -6.58457 -1.71587
ltoes 2.22639e-014
990
root -15.3354 16.4865 5.23988 -155.028 83.1412 -170.048
lowerback -2.13504 0.599469 -1.35155
upperback -0.701415 0.861063 -1.86941
thorax 0.487286 0.439285 -1.1351
lowerneck 3.63687 -42.568 -20.9486
upperneck 9.06679 -57.5558 -13.0921
head 13.9367 -35.9812 -164.336
rclavicle 1.5704e-014 -6.36111e-015
rhumerus -32.1689 -25.411 -73.9606
rradius 14.636
rwrist 28.3094
rhand -31.3103 0.697567
rfingers 7.12502
rthumb -4.58274 -29.2329
lclavicle 1.5704e-014 -6.36111e-015
lhumerus -40.3581 6.7654 74.3413
lradius 42.0256
lwrist -17.4386
lhand -40.6368 3.76829
lfingers 7.12502
lthumb -13.5816 33.3053
rfemur -38.9293 -5.56475 19.3135
rtibia 41.7376
rfoot -13.8228 -4.8405
rtoes -2.8625e-014
lfemur -11.6757 14.0154 -18.5944
ltibia 13.1007
lfoot -6.88319 -1.67937
ltoes -2.06736e-014
991
root -15.3927 16.4849 5.23037 -154.611 83.3116 -169.586
lowerback -2.33919 0.544273 -1.38624
upperback -0.660033 0.79232 -1.76309
thorax 0.64132 0.403817 -1.00594
lowerneck 3.51612 -42.4052 -20.7406
upperneck 9.07081 -57.4789 -13.0417
head 13.9614 -35.6672 -164.342
rclavicle 2.54444e-014 1.51076e-014
rhumerus -31.8483 -24.2893 -74.7802
rradius 14.9844
rwrist 27.5615
rhand -31.435 0.839156
rfingers 7.12502
rthumb -4.70318 -29.0886
lclavicle 2.54444e-014 1.51076e-014
lhumerus -40.5515 6.99445 74.4236
lradius 41.6206
lwrist -16.81
lhand -40.8541 3.95762
lfingers 7.12502
lthumb -13.791 33.4805
rfemur -38.5346 -5.31612 19.2094
rtibia 42.81
rfoot -13.9744 -4.4215
rtoes -3.97569e-014
lfemur -12.3705 14.4252 -18.7429
ltibia 14.1456
lfoot -7.26588 -1.89481
ltoes -5.56597e-014
992
root -15.4524 16.4814 5.22538 -154.632 83.338 -169.499
lowerback -2.41534 0.454064 -1.40811
upperback -0.597293 0.673515 -1.66573
thorax 0.74589 0.343261 -0.896261
lowerneck 3.381 -42.2857 -20.5299
upperneck 9.10289 -57.5 -13.0059
head 14.0261 -35.5007 -164.383
rclavicle 3.97569e-016 -2.78299e-014
rhumerus -31.5025 -23.3934 -75.4933
rradius 15.2578
rwrist 26.9358
rhand -31.7316 0.980921
rfingers 7.12502
rthumb -4.98955 -28.9403
lclavicle 3.97569e-016 -2.78299e-014
lhumerus -40.6056 7.2072 74.4311
lradius 40.9835
lwrist -16.6192
lhand -41.009 3.83452
lfingers 7.12502
lthumb -13.9403 33.3472
rfemur -38.0264 -5.36374 19.1979
rtibia 43.7756
rfoot -14.1075 -3.90435
rtoes 8.74653e-014
lfemur -12.9955 14.6996 -18.851
ltibia 15.1632
lfoot -7.59608 -2.16727
ltoes 1.74931e-014
